# xmcd CD database file
#
# Track frame offsets:
#	150
#	24020
#	41533
#	61193
#	91594
#	108539
#	126864
#	145934
#	180785
#	202673
#
# Disc length: 2911 seconds
#
# Revision: 0
# Processed by: cddbd v1.5.2PL0 Copyright (c) Steve Scherf et al.
# Submitted via: CDex 1.51
#
DISCID=6e0b5d0a
DTITLE=Phaedra - Too Much In Store
DYEAR=2010
DGENRE=Jazz
TTITLE0=Crystal Silence
TTITLE1=Captain Pony
TTITLE2=My Romance
TTITLE3=Too Much In Store
TTITLE4=Nature Boy
TTITLE5=Danced With You Today
TTITLE6=Softly As In A Morning Sunrise
TTITLE7=Half An Hour
TTITLE8=Many Moons Ago
TTITLE9=Peace And Silence
EXTD=YEAR: 2010
EXTT0=
EXTT1=
EXTT2=
EXTT3=
EXTT4=
EXTT5=
EXTT6=
EXTT7=
EXTT8=
EXTT9=
PLAYORDER=
